<svg width="54" height="58" viewBox="0 0 54 58" fill="none" xmlns="http://www.w3.org/2000/svg">
<path d="M33.6338 47.8301H31.7368V47.1899H33.6147L33.6338 47.8301ZM29.8588 47.8301H27.9804V47.1897H29.8588V47.8301ZM26.1026 47.8301H24.2245V47.1897H26.1026V47.8301ZM22.3464 47.8301H20.4686V47.1897H22.3464V47.8301ZM18.5903 47.8301H16.7122V47.1897H18.5903V47.8301ZM14.8344 47.8301H12.9563V47.1897H14.8344V47.8301ZM11.1618 46.6955C11.0289 46.4199 10.9617 46.1233 10.9614 45.8141V44.6831H11.5947V45.8138C11.595 46.0251 11.6407 46.2274 11.7309 46.4155L11.1618 46.6955ZM35.4189 46.6738L34.8467 46.3997C34.9323 46.2163 34.9755 46.0192 34.9755 45.8138V44.6622H35.6093V45.8138C35.6093 46.1148 35.5451 46.4041 35.4189 46.6738ZM11.5947 42.7843H10.9609V40.8858H11.5947V42.7843ZM35.6093 42.7639H34.9757V40.8654H35.6093V42.7639ZM11.5947 38.9876H10.9609V37.0891H11.5947V38.9876ZM35.6093 38.9669H34.9757V37.0684H35.6093V38.9669ZM11.5947 35.1906H10.9609V33.2919H11.5947V35.1906ZM35.6093 35.17H34.9757V33.2715H35.6093V35.17ZM11.5947 31.3936H10.9609V29.4951H11.5947V31.3936ZM35.6093 31.3732H34.9757V29.4745H35.6093V31.3732ZM11.5947 27.5969H10.9609V25.6984H11.5947V27.5969ZM35.6093 27.5762H34.9757V25.6778H35.6093V27.5762ZM11.5947 23.7999H10.9609V21.9014H11.5947V23.7999ZM35.6093 23.7795H34.9757V21.881H35.6093V23.7795ZM11.5947 20.0029H10.9609V18.1045H11.5947V20.0029ZM35.6093 19.9823H34.9757V18.0838H35.6093V19.9823ZM11.5947 16.2062H10.9614V15.0644C10.9614 14.7601 11.0269 14.4676 11.1559 14.1943L11.7276 14.4707C11.6394 14.6567 11.5947 14.8564 11.5947 15.0644V16.2062ZM35.6093 16.1856H34.9755V15.0644C34.9755 14.8507 34.9287 14.6461 34.836 14.456L35.4038 14.1724C35.5403 14.4514 35.6093 14.7515 35.6093 15.0644V16.1856ZM33.6044 13.6885H31.7264V13.0481H33.6044V13.6885ZM29.8485 13.6885H27.9702V13.0481H29.8485V13.6885ZM26.0921 13.6885H24.214V13.0481H26.0921V13.6885ZM22.3365 13.6885H20.4584V13.0481H22.3365V13.6885ZM18.5801 13.6885H16.702V13.0481H18.5801V13.6885ZM14.8242 13.6885H12.9558L12.9458 13.0481H14.8242V13.6885Z" fill="#E03030"/>
<path d="M38.2524 44.3059H16.51C15.5346 44.3059 14.7441 43.5066 14.7441 42.5211V10.1586C14.7441 9.17306 15.5346 8.37378 16.51 8.37378H31.3622C34.2297 13.1558 37.8303 15.1685 40.0181 16.3948V42.5211C40.0181 43.5066 39.2274 44.3059 38.2524 44.3059Z" fill="#E03030"/>
<path d="M44.2164 45.9936L50.628 52.4754C51.0929 52.9453 51.0929 53.7074 50.628 54.1771C50.1632 54.647 49.4098 54.647 48.9447 54.1771L42.5331 47.6952C40.9205 48.9624 38.8945 49.7167 36.6941 49.7167C31.4353 49.7167 27.1719 45.4074 27.1719 40.0914C27.1719 34.7755 31.4353 30.4659 36.6941 30.4659C41.953 30.4659 46.2161 34.7755 46.2161 40.0914C46.2161 42.3157 45.4697 44.3638 44.2164 45.9936ZM36.6941 47.3103C40.6384 47.3103 43.8354 44.0783 43.8354 40.0914C43.8354 36.1043 40.6384 32.8721 36.6941 32.8721C32.7499 32.8721 29.5526 36.1043 29.5526 40.0914C29.5526 44.0783 32.7499 47.3103 36.6941 47.3103Z" fill="#35422F"/>
<path d="M31.3633 8.37378V15.1194C31.3633 15.8239 31.9283 16.395 32.625 16.395H40.0195L31.3633 8.37378Z" fill="#35422F"/>
<path d="M3.96505 18.0791C3.04623 18.0791 2.29883 17.3239 2.29883 16.3951C2.29883 15.4663 3.04623 14.7104 3.96505 14.7104C4.88387 14.7104 5.63127 15.4663 5.63127 16.3951C5.63127 17.3239 4.88387 18.0791 3.96505 18.0791ZM3.96505 15.004C3.20628 15.004 2.58925 15.6281 2.58925 16.3951C2.58925 17.1619 3.20628 17.7855 3.96505 17.7855C4.72382 17.7855 5.34085 17.1619 5.34085 16.3951C5.34085 15.6281 4.72382 15.004 3.96505 15.004Z" fill="#35422F"/>
<path d="M36.8191 7.90469C36.8191 8.06683 36.689 8.19817 36.5287 8.19817C36.3683 8.19817 36.2383 8.06683 36.2383 7.90469C36.2383 7.74255 36.3683 7.61121 36.5287 7.61121C36.689 7.61121 36.8191 7.74255 36.8191 7.90469Z" fill="#EBEBEB"/>
<path d="M53.405 15.0229H52.141V13.7455H51.5803V15.0229H50.3164V15.5899H51.5803V16.8673H52.141V15.5899H53.405V15.0229Z" fill="#EBEBEB"/>
<path d="M32.3284 56.1574H31.5242V55.3446H31.1674V56.1574H30.3633V56.518H31.1674V57.3311H31.5242V56.518H32.3284V56.1574Z" fill="#EBEBEB"/>
<path d="M2.76686 35.026H1.63462V33.8817H1.13224V35.026H0V35.5339H1.13224V36.6786H1.63462V35.5339H2.76686V35.026Z" fill="#35422F"/>
<path d="M28.4162 3.60016C28.0714 3.60016 27.791 3.3167 27.791 2.96817C27.791 2.61965 28.0714 2.33618 28.4162 2.33618C28.761 2.33618 29.0414 2.61965 29.0414 2.96817C29.0414 3.3167 28.761 3.60016 28.4162 3.60016ZM28.4162 2.4464C28.1316 2.4464 27.9 2.68065 27.9 2.96817C27.9 3.25587 28.1316 3.48994 28.4162 3.48994C28.7008 3.48994 28.9324 3.25587 28.9324 2.96817C28.9324 2.68065 28.7008 2.4464 28.4162 2.4464Z" fill="#F19025"/>
<path d="M5.63806 48.0834C5.32497 48.0834 5.07031 47.8261 5.07031 47.5097C5.07031 47.1933 5.32497 46.936 5.63806 46.936C5.95102 46.936 6.20556 47.1933 6.20556 47.5097C6.20556 47.8261 5.95102 48.0834 5.63806 48.0834ZM5.63806 47.0359C5.37967 47.0359 5.16926 47.2485 5.16926 47.5097C5.16926 47.7709 5.37967 47.9835 5.63806 47.9835C5.89632 47.9835 6.1066 47.7709 6.1066 47.5097C6.1066 47.2485 5.89632 47.0359 5.63806 47.0359Z" fill="#35422F"/>
<path d="M24.0373 21.9624C24.0373 22.4303 23.6619 22.8098 23.1993 22.8098C22.7365 22.8098 22.3613 22.4303 22.3613 21.9624C22.3613 21.4946 22.7365 21.1156 23.1993 21.1156C23.6619 21.1156 24.0373 21.4946 24.0373 21.9624Z" fill="#35422F"/>
<path d="M33.0216 21.9624C33.0216 22.4303 32.6462 22.8098 32.1837 22.8098C31.7209 22.8098 31.3457 22.4303 31.3457 21.9624C31.3457 21.4946 31.7209 21.1156 32.1837 21.1156C32.6462 21.1156 33.0216 21.4946 33.0216 21.9624Z" fill="#35422F"/>
<path d="M24.8076 28.7214C24.8007 28.7214 24.7936 28.7209 24.7864 28.7198C24.6952 28.7082 24.6304 28.624 24.6419 28.532C24.6458 28.5 25.0711 25.3271 27.7008 25.3271C30.3302 25.3271 30.7554 28.5 30.7594 28.532C30.7709 28.624 30.7063 28.7082 30.615 28.7198C30.5223 28.733 30.44 28.6661 30.4285 28.5741C30.4137 28.4553 30.0353 25.6643 27.7008 25.6643C25.3663 25.6643 24.9878 28.4553 24.9727 28.5741C24.962 28.6591 24.8902 28.7214 24.8076 28.7214Z" fill="#35422F"/>
<path d="M45.6162 30.7269C45.6162 30.7523 45.5959 30.7728 45.5708 30.7728C45.5457 30.7728 45.5254 30.7523 45.5254 30.7269C45.5254 30.7016 45.5457 30.681 45.5708 30.681C45.5959 30.681 45.6162 30.7016 45.6162 30.7269Z" fill="#F19025"/>
<path d="M32.6797 16.395H40.0192V18.395C40.0192 18.395 38.8864 16.6934 32.6797 16.395Z" fill="#35422F"/>
</svg>
