<svg width="24" height="24" viewBox="0 0 24 24" fill="none" xmlns="http://www.w3.org/2000/svg">
<g clip-path="url(#clip0_3469_14075)">
<path d="M2.66667 3.33333C1.95942 3.33333 1.28115 3.61429 0.781049 4.11438C0.280952 4.61448 0 5.29276 0 6L0 18C0 18.7072 0.280952 19.3855 0.781049 19.8856C1.28115 20.3857 1.95942 20.6667 2.66667 20.6667H8V3.33333H2.66667Z" fill="#009A49"/>
<path d="M8 3.33333H16V20.6667H8V3.33333Z" fill="#EEEEEE"/>
<path d="M21.3333 3.33333H16V20.6667H21.3333C22.0406 20.6667 22.7189 20.3857 23.219 19.8856C23.719 19.3855 24 18.7072 24 18V6C24 5.29276 23.719 4.61448 23.219 4.11438C22.7189 3.61429 22.0406 3.33333 21.3333 3.33333Z" fill="#009A49"/>
</g>
<defs>
<clipPath id="clip0_3469_14075">
<rect width="24" height="24" fill="white"/>
</clipPath>
</defs>
</svg>
