<?xml version="1.0" encoding="utf-8"?>
<!-- Generator: Adobe Illustrator 26.0.1, SVG Export Plug-In . SVG Version: 6.00 Build 0)  -->
<svg version="1.1" id="Layer_1" xmlns="http://www.w3.org/2000/svg" xmlns:xlink="http://www.w3.org/1999/xlink" x="0px" y="0px"
	 viewBox="0 0 905.6 289.4" style="enable-background:new 0 0 905.6 289.4;" xml:space="preserve">
<style type="text/css">
	.st0{fill:#F08F25;}
	.st1{fill:#AA5E27;}
	.st2{fill:#FFFFFF;}
</style>
<g>
	<path class="st0" d="M158.4,141.7c39-0.2,58.9-16.9,68.8-31.1c11.3-16.2,12.1-32.9,12.1-33.6l0.5-10.4l-10.4,0.6
		c-32.7,1.9-56.3,13.3-72.2,34.9c-7.6,10.3-12.7,21.9-16.7,34c-0.6,1.8-1.2,3.7-1.8,5.5c-2.4,7.7-4.3,15.6-6.3,23.4
		c-1.1,4.5-2.2,8.8-3.4,13.1c-2.1,7.8-5.8,14.9-10.7,21V48.9h-9.4c-24.9,0-45.2,20.3-45.2,45.2v145.6h9.4c30.5,0,57.9-18.2,70-45.5
		c1.6,3.4,3.5,6.6,5.7,9.7c15.1,21.7,41.7,34.7,74.8,36.6l10.4,0.6l-0.5-10.4c0-0.7-0.9-17.3-12.1-33.6c-9.7-14-29-30.2-66.4-31.1
		c-0.4-6.2,0.2-12.8,1.8-19.4C157.3,144.9,157.9,143.3,158.4,141.7z M218,87.3c-1.3,3.8-3.3,8.2-6.3,12.5
		c-9.3,13.5-24.5,21.1-45.2,22.7C175.9,105,190.8,91.7,218,87.3z M99.5,214.5c-5.3,2.7-11,4.6-16.9,5.6v-126
		c0-11.2,7-20.8,16.9-24.6V214.5z M205.6,207.2c3.2,4.5,5.4,9.1,6.7,13.1c-21.4-3.5-38.1-13-48-27.1c-1.8-2.6-3.3-5.3-4.6-8.1
		C180.6,186.4,196,193.9,205.6,207.2z"/>
	<path class="st1" d="M118.3,185.9V199c0,0-7.9,10.7-18.8,15.4V203C110.2,198.1,118.3,185.9,118.3,185.9z"/>
	<path class="st1" d="M167.8,185.9c-2.6-0.4-5.3-0.7-8.1-0.9c-4.8-8.9-4.6-19-4.6-19c2.4,0.1,4.8,0.2,7.1,0.4
		C162.5,170.5,163.6,178.5,167.8,185.9z"/>
	<path class="st1" d="M174.7,121.5c-1.4,3.2-4.7,11.4-7,19.8c-2.9,0.2-6,0.4-9.2,0.4h-0.1c3-10.8,7.7-18.6,8-19.1l0,0
		C169.3,122.3,172.1,122,174.7,121.5z"/>
	<path class="st0" d="M158.5,141.7l-0.2,0.5C158.4,142,158.4,141.9,158.5,141.7L158.5,141.7z"/>
	<path class="st1" d="M99.5,202.8v0.2c-0.1,0.1-0.3,0.1-0.4,0.2L99.5,202.8z"/>
</g>
<g>
	<path class="st2" d="M371.4,211.8h-15.9c-0.8,0-1.6-0.3-2.1-0.9l-39.8-41.4c-1.8-1.9-5.1-0.6-5.1,2v37.3c0,1.6-1.3,3-3,3h-12
		c-1.6,0-3-1.3-3-3v-100c0-1.6,1.3-3,3-3h12c1.6,0,3,1.3,3,3v34.8c0,2.7,3.3,4,5.1,2l36.3-38.9c0.6-0.6,1.3-0.9,2.2-0.9H367
		c2.6,0,3.9,3.1,2.1,5l-41.8,44.3c-1.1,1.1-1.1,2.9,0,4.1l46.2,47.6C375.3,208.7,374,211.8,371.4,211.8z"/>
	<path class="st2" d="M457,140v68.9c0,1.6-1.3,3-3,3h-9.3c-1.6,0-2.9-1.3-3-2.9v-0.3c0-2.4-2.8-3.8-4.7-2.3c-2,1.6-4.3,2.9-6.9,4
		c-4.7,2.1-10,3.1-15.8,3.1c-7.3,0-13.7-1.6-19.3-4.9c-5.6-3.3-10-7.9-13.1-13.9s-4.7-12.7-4.7-20.3s1.6-14.3,4.7-20.3
		s7.5-10.6,13.1-13.9c5.6-3.3,12-4.9,19.3-4.9c5.8,0,11,1,15.8,3.1c2.6,1.1,4.8,2.5,6.9,4c1.9,1.5,4.7,0.1,4.7-2.3v-0.3
		c0-1.6,1.3-2.9,3-2.9h9.3C455.7,137,457,138.3,457,140z M433.7,191.5c4.2-4.4,6.4-10.1,6.4-17s-2.1-12.6-6.4-17
		c-4.2-4.4-9.7-6.6-16.5-6.6s-12.3,2.2-16.5,6.6c-4.2,4.4-6.4,10.1-6.4,17s2.1,12.6,6.4,17c4.2,4.4,9.7,6.6,16.5,6.6
		C423.9,198,429.4,195.9,433.7,191.5z"/>
	<path class="st2" d="M473.7,200.2l4.7-7.3c0.9-1.4,2.7-1.8,4.1-0.9c2.8,1.8,6,3.3,9.6,4.4c4.6,1.5,9.4,2.2,14.4,2.2
		c4.7,0,8.4-0.7,11.1-2.2c2.6-1.5,3.9-3.6,3.9-6.3c0-2.6-1.3-4.6-3.9-6.1c-2.6-1.4-6.7-2.4-12.5-3c-9.8-0.9-17.3-3.4-22.6-7.3
		c-5.3-4-8-9.2-8-15.7c0-4.5,1.4-8.5,4.1-12c2.7-3.4,6.5-6.1,11.4-8s10.5-2.9,16.9-2.9c10.4,0,19.4,2.3,27.2,7
		c1.4,0.8,1.9,2.7,1,4.1l-4.4,7.2c-0.8,1.3-2.6,1.8-3.9,1c-6-3.3-12.3-4.9-19.1-4.9c-5.4,0-9.4,0.7-12.3,2.2
		c-2.8,1.5-4.2,3.6-4.2,6.3c0,2.4,1.2,4.3,3.6,5.7s6.3,2.3,11.7,3c11.1,1.2,19.2,3.7,24.2,7.4s7.6,9.1,7.6,16.2
		c0,4.6-1.3,8.7-4,12.2s-6.5,6.2-11.4,8.2s-10.5,3-16.9,3c-11.6,0-22.1-3.1-31.4-9.4C473.2,203.4,472.8,201.6,473.7,200.2z"/>
	<path class="st2" d="M624.5,140v68.9c0,1.6-1.3,3-3,3h-9.3c-1.6,0-2.9-1.3-3-2.9l0,0c0-2.4-2.9-3.8-4.8-2.3
		c-5.7,4.5-12.6,6.7-20.8,6.7c-6.4,0-11.9-1.4-16.7-4.3c-4.7-2.9-8.4-6.9-11-12.2c-2.6-5.2-3.9-11.4-3.9-18.5V140c0-1.6,1.3-3,3-3
		h11.1c1.6,0,3,1.3,3,3v37.3c0,6.6,1.6,11.7,4.7,15.3c3.1,3.6,7.4,5.5,12.9,5.5c6.2,0,11.2-2,15-6.1c3.8-4,5.8-9.2,5.8-15.6V140
		c0-1.6,1.3-3,3-3h11.1C623.2,137,624.5,138.3,624.5,140z"/>
	<path class="st2" d="M742.6,137h11.7c2,0,3.4,2,2.8,3.9l-22.9,68.9c-0.4,1.2-1.5,2-2.8,2h-13.8c-1.3,0-2.4-0.8-2.8-2l-6.4-19.3
		l-8-22.2c-0.9-2.6-4.6-2.6-5.6,0l-8,22.2l-6.4,19.3c-0.4,1.2-1.5,2-2.8,2h-13.9c-1.3,0-2.4-0.8-2.8-2l-23-68.9
		c-0.6-1.9,0.8-3.9,2.8-3.9h11.7c1.3,0,2.4,0.8,2.8,2.1l7.8,25.5l5.5,18.9c0.8,2.8,4.7,2.9,5.6,0.2l15.5-44.7c0.4-1.2,1.5-2,2.8-2
		h10.2c1.3,0,2.4,0.8,2.8,2l15.4,45c0.9,2.7,4.8,2.6,5.6-0.1l5.7-19.3l7.6-25.5C740.2,137.9,741.3,137,742.6,137z"/>
	<path class="st2" d="M842.5,140v68.9c0,1.6-1.3,3-3,3h-9.3c-1.6,0-2.9-1.3-3-2.9v-0.3c0-2.4-2.8-3.8-4.7-2.3c-2,1.6-4.3,2.9-6.9,4
		c-4.7,2.1-10,3.1-15.8,3.1c-7.3,0-13.7-1.6-19.3-4.9c-5.6-3.3-10-7.9-13.1-13.9s-4.7-12.7-4.7-20.3s1.6-14.3,4.7-20.3
		c3.1-6,7.5-10.6,13.1-13.9c5.6-3.3,12-4.9,19.3-4.9c5.8,0,11,1,15.8,3.1c2.6,1.1,4.8,2.5,6.9,4c1.9,1.5,4.7,0.1,4.7-2.3v-0.3
		c0-1.6,1.3-2.9,3-2.9h9.3C841.2,137,842.5,138.3,842.5,140z M819.2,191.5c4.2-4.4,6.4-10.1,6.4-17s-2.1-12.6-6.4-17
		c-4.2-4.4-9.7-6.6-16.5-6.6s-12.3,2.2-16.5,6.6c-4.2,4.4-6.4,10.1-6.4,17s2.1,12.6,6.4,17c4.2,4.4,9.7,6.6,16.5,6.6
		C809.4,198,814.9,195.9,819.2,191.5z"/>
</g>
</svg>
