<?xml version="1.0" encoding="utf-8"?>
<!-- Generator: Adobe Illustrator 24.3.0, SVG Export Plug-In . SVG Version: 6.00 Build 0)  -->
<svg version="1.1" id="Layer_1" xmlns="http://www.w3.org/2000/svg" xmlns:xlink="http://www.w3.org/1999/xlink" x="0px" y="0px"
	 viewBox="0 0 511 511" style="enable-background:new 0 0 511 511;" xml:space="preserve">
<style type="text/css">
	.st0{fill:#F08F25;}
	.st1{fill:#AA5E27;}
</style>
<g>
	<path class="st0" d="M267,249.8c60.5-0.4,91.4-26.2,106.7-48.3c17.5-25.2,18.8-51,18.8-52.1l0.7-16.1l-16.1,0.9
		c-50.7,2.9-87.4,20.6-112.1,54.2c-11.8,16-19.7,34-25.9,52.7c-0.9,2.8-1.9,5.7-2.7,8.5c-3.7,12-6.7,24.2-9.8,36.3
		c-1.8,7.1-3.5,13.7-5.3,20.3c-3.3,12.2-9,23.2-16.5,32.6V105.7h-14.6c-38.7,0-70.1,31.5-70.1,70.1v226h14.6
		c47.4,0,89.8-28.3,108.7-70.7c2.5,5.2,5.4,10.3,8.8,15.1c23.4,33.7,64.7,53.8,116.1,56.7l16.1,0.9l-0.7-16.1
		c0-1.1-1.4-26.9-18.8-52.1c-15-21.7-45-46.9-103.1-48.3c-0.6-9.7,0.3-19.8,2.8-30.2C265.4,254.8,266.2,252.3,267,249.8z
		 M359.5,165.4c-2,5.9-5.1,12.7-9.8,19.4c-14.5,20.9-38,32.7-70.2,35.2C294.3,192.8,317.3,172.2,359.5,165.4z M175.6,362.7
		c-8.2,4.2-17,7.2-26.3,8.7V175.9c0-17.4,10.9-32.3,26.3-38.2V362.7z M340.3,351.4c5,7,8.3,14.2,10.5,20.4
		c-33.1-5.5-59.2-20.1-74.5-42.1c-2.8-4-5.2-8.2-7.2-12.6C301.5,319.2,325.4,330.8,340.3,351.4z"/>
	<path class="st1" d="M204.9,318.5v20.3c0,0-12.3,16.6-29.2,23.9v-17.9C192.2,337.3,204.9,318.5,204.9,318.5z"/>
	<path class="st1" d="M281.6,318.4c-4-0.6-8.2-1.1-12.6-1.4c-7.4-13.8-7.2-29.6-7.2-29.6c3.8,0.1,7.5,0.3,11,0.6
		C273.4,294.4,275.1,307,281.6,318.4z"/>
	<path class="st1" d="M292.4,218.5c-2.1,5-7.2,17.7-10.9,30.7c-4.6,0.4-9.3,0.6-14.2,0.6h-0.1c4.6-16.8,11.9-28.9,12.4-29.7l0,0
		C284,219.7,288.3,219.2,292.4,218.5z"/>
	<path class="st0" d="M267.3,249.8l-0.3,0.8c0.1-0.3,0.1-0.5,0.2-0.8H267.3z"/>
	<path class="st1" d="M175.6,344.6v0.3c-0.2,0.1-0.5,0.2-0.7,0.3L175.6,344.6z"/>
</g>
</svg>
